<?xml version="1.0" standalone="no"?>
<!DOCTYPE svg PUBLIC "-//W3C//DTD SVG 1.1//EN" "http://www.w3.org/Graphics/SVG/1.1/DTD/svg11.dtd" >
<svg xmlns="http://www.w3.org/2000/svg">
<metadata></metadata>
<defs>
<font id="karatemedium" horiz-adv-x="836" >
<font-face units-per-em="2048" ascent="1638" descent="-410" />
<missing-glyph horiz-adv-x="512" />
<glyph horiz-adv-x="2048" />
<glyph horiz-adv-x="2048" />
<glyph unicode="&#xd;" horiz-adv-x="0" />
<glyph unicode=" "  horiz-adv-x="512" />
<glyph unicode="&#x09;" horiz-adv-x="512" />
<glyph unicode="&#xa0;" horiz-adv-x="512" />
<glyph unicode="!" horiz-adv-x="651" d="M-25 1720l615 222q4 -43 10 -147t6 -234q0 -247 -28 -406q-25 -146 -73.5 -272t-105 -220.5t-110 -161t-105.5 -116.5l308 -16l-37 -406l-357 37l-98 393l135 -6q21 105 41.5 265t20.5 315q0 151 -25 262q-25 121 -91.5 270t-105.5 221z" />
<glyph unicode="&#x22;" horiz-adv-x="958" d="M-158 848q42 54 112 169t93 222q6 24 6 59q0 74 -15.5 154t-25.5 121l432 78q-2 -44 -11 -142t-34.5 -216.5t-68.5 -176.5q-72 -105 -181.5 -165t-190 -80t-116.5 -23zM358 848q42 54 112 169t93 222q6 24 6 59q0 74 -15.5 154t-25.5 121l433 78q-2 -44 -11 -138 t-35 -216.5t-69 -180.5q-72 -105 -181.5 -165t-190 -80t-116.5 -23z" />
<glyph unicode="#" horiz-adv-x="1831" d="M-43 588l258 348q15 -6 51 -19t96.5 -33.5t153.5 -47.5q15 35 16 38q18 45 39 123q-140 12 -243 25t-148 20l258 349q21 -8 74 -27t119 -41q10 83 14.5 132.5t5.5 70.5l424 86q-12 -43 -43.5 -140t-83.5 -231q79 -13 129 -16q15 -2 43 -2q15 98 24.5 186.5t12.5 124.5 l424 86q-5 -19 -23 -77.5t-44 -135.5t-58 -162q192 25 349.5 56t230.5 47q-78 -41 -253.5 -121t-393.5 -150q-86 -193 -150 -286q173 22 338.5 54t237.5 48q-40 -21 -140.5 -69.5t-262.5 -114t-318 -109.5q-117 -135 -243 -251.5t-209.5 -184t-119.5 -94.5q12 15 41.5 53.5 t77.5 104t106 150t111 169.5q-111 -15 -240 -15q-53 0 -81 3q-112 -121 -225.5 -224.5t-190 -166t-107.5 -85.5q20 26 71.5 94t132 184t136.5 206q-137 10 -244.5 24t-152.5 21zM733 782q71 -13 123 -16q18 -2 59 -2q46 0 70 2q33 59 55 117q21 49 37 118q-97 -14 -237 -14 q-40 -102 -107 -205z" />
<glyph unicode="$" horiz-adv-x="1536" d="M-6 1139q0 91 31 159.5t86 112.5l116 217q-4 0 168 -104q90 14 191 14h24q13 100 39.5 189.5t42.5 130.5l254 -136q-17 -26 -50.5 -81t-66.5 -121q39 -4 81.5 -11t56.5 -10q-52 0 -158 -24q-26 -57 -29 -117q76 -15 162 -15q163 0 308.5 31.5t209.5 52.5 q-15 -18 -56.5 -57.5t-129 -101t-207 -115t-264.5 -76.5q9 -43 15 -64t9 -30q-8 7 -26 25.5t-51 60.5q-58 -6 -123 -6q-79 2 -195 20q24 -99 125 -174q138 23 283 23q120 0 224.5 -18t192.5 -62.5t141.5 -126t53.5 -201.5q0 -44 -16 -84l94 -82q-33 -36 -116 -111.5 t-215 -157.5t-257 -99q-13 -96 -38 -175.5t-40 -115.5l-254 135q12 19 39 62.5t53 95.5q-252 24 -439.5 109.5t-260.5 138.5q20 -2 87.5 -4.5t105.5 -2.5q373 0 583 80q-4 64 -15 123t-20 91.5t-14 45.5q22 -18 66.5 -69t87.5 -139q53 30 116 73q21 47 21 99q0 131 -121 223 q-146 4 -288 20t-285.5 57.5t-237.5 116t-94 185.5zM608 877q105 -58 248 -89q-93 53 -248 89z" />
<glyph unicode="%" horiz-adv-x="1020" d="M-109 -2q47 61 149 201t224.5 332.5t179.5 334.5q59 148 88 364t37 331l453 92q-11 -37 -39.5 -128t-81.5 -235t-118 -288.5t-132 -243.5q-113 -170 -280.5 -337t-295.5 -274t-184 -149zM-2 1284q0 199 197 268q-8 6 -19 13t-14 8q33 0 78 -8q55 14 118 14q-11 0 -59 -29 q90 -28 151.5 -92t61.5 -180q0 -134 -81.5 -205t-164 -90t-123.5 -20q9 4 27.5 13t48.5 32q-86 25 -153 90t-68 186zM156 1280q1 -90 26.5 -150t61.5 -102q106 98 106 250q-2 131 -102 231q-92 -92 -92 -229zM502 289q0 197 196 268q-16 11 -20 14t-7.5 4.5t-4.5 2.5 q32 0 77 -9q56 15 119 15q-8 0 -59 -29q54 -17 103 -49.5t79.5 -88.5t30.5 -134q0 -136 -81.5 -206.5t-164 -89.5t-123.5 -20q9 4 32 16.5t44 28.5q-87 28 -153.5 92t-67.5 185zM659 285q3 -90 28 -150t61 -102q106 98 106 250q-2 131 -102 231q-93 -93 -93 -229z" />
<glyph unicode="&#x26;" horiz-adv-x="1303" d="M2 418q0 167 211 289q-188 207 -195 407q0 225 236 348h-51q10 3 35.5 10t68.5 15q123 52 234.5 68.5t163.5 17.5q-122 0 -222 -64q21 2 66 2q120 0 206.5 -30t136.5 -111.5t50 -230.5q0 -105 -46 -190.5t-128.5 -149t-189.5 -105.5q10 -11 18 -20t22 -25 q146 -159 318 -317q112 56 192 107.5t115 76.5q-20 -33 -79.5 -110.5t-139.5 -153.5q105 -93 177.5 -155.5t103.5 -88.5q-40 13 -137 52.5t-236 113.5q-56 -45 -133 -86q-78 -40 -169.5 -63t-189.5 -23q-187 0 -311 99t-127 317zM340 1212q1 -131 34 -224t95 -175 q19 4 66 18q64 67 88 149t24 191q0 125 -60.5 189t-174.5 86q-72 -90 -72 -234zM360 442q3 -229 199 -229q96 0 223 51q-26 17 -84 53q-61 41 -107 73t-99 70.5t-101 78.5q-31 -48 -31 -97z" />
<glyph unicode="'" horiz-adv-x="418" d="M-158 848q42 54 112 169t93 222q6 24 6 59q0 74 -15.5 154t-25.5 121l432 78q-2 -44 -11 -142t-34.5 -216.5t-68.5 -176.5q-72 -105 -181.5 -165t-190 -80t-116.5 -23z" />
<glyph unicode="(" horiz-adv-x="737" d="M-16 778q0 334 138.5 541.5t321 301t322.5 118.5t201 26q-36 -15 -116.5 -67t-191 -171t-191.5 -310.5t-81 -452.5q3 -288 118.5 -497.5t231 -311.5t172.5 -135q-58 0 -188.5 22.5t-303.5 112.5t-303 292.5t-130 530.5z" />
<glyph unicode=")" horiz-adv-x="737" d="M-250 -180q36 16 119.5 69.5t190 168.5t188.5 308.5t82 454.5q-3 288 -118.5 497.5t-231.5 311.5t-173 135q58 0 188.5 -22.5t304 -111.5t303.5 -292t130 -532q0 -335 -138 -541.5t-324.5 -301.5t-322.5 -119t-198 -25z" />
<glyph unicode="," horiz-adv-x="418" d="M-158 -406q42 54 112 169.5t93 222.5q6 24 6 59q0 74 -15.5 153.5t-25.5 120.5l432 78q-2 -44 -11 -142t-35 -216t-68 -176q-71 -104 -181 -165t-190.5 -81t-116.5 -23z" />
<glyph unicode="-" d="M-2 666l139 282q43 -26 131.5 -67t169.5 -45q129 0 245.5 26t168.5 43q-70 -60 -212.5 -159t-256.5 -128q-33 -8 -82 -8q-86 0 -174 21t-129 35z" />
<glyph unicode="." horiz-adv-x="504" d="M0 393l492 -24l-37 -406l-357 37z" />
<glyph unicode="/" horiz-adv-x="1020" d="M-264 -244q59 76 186.5 251.5t280.5 416.5t223 418q50 126 85.5 316.5t51.5 339.5t21 212l565 115q-13 -47 -50 -164t-96.5 -282t-146 -357.5t-170.5 -316.5q-110 -165 -266 -331t-301.5 -297t-244 -211t-138.5 -110z" />
<glyph unicode="0" horiz-adv-x="1315" d="M0 840q0 202 69.5 346t179.5 230.5t243 135.5q-31 24 -52.5 37t-29.5 17q77 0 188 -21q94 26 171 33.5t136 7.5q-16 -5 -57.5 -25t-93.5 -55q101 -31 195.5 -86t171.5 -140t124 -211.5t47 -289.5q0 -360 -206.5 -545.5t-413.5 -236t-310 -53.5q22 9 75 38t116 80 q-128 41 -251 124t-211 236.5t-91 377.5zM395 827q1 -231 66.5 -398t152.5 -271q75 73 135 165.5t98 218.5t38 277q-3 198 -77 353t-183 264q-101 -105 -165.5 -254.5t-64.5 -354.5z" />
<glyph unicode="1" horiz-adv-x="934" d="M0 1217q69 20 147 50t135.5 61.5t110.5 72.5q32 25 68 51.5t76 57.5t80 67t71 70q34 -22 60 -78q20 20 40 36.5t27 20.5q-4 -16 -10 -36.5t-33 -127.5q7 -44 9.5 -95.5t4.5 -51.5q0 -2 -49 -23q-45 -246 -45 -426q0 -87 13 -161q14 -90 62.5 -199t93 -185.5t65.5 -107.5 l-504 -197q-28 80 -69.5 255.5t-41.5 353.5q0 82 13 153q35 215 141 416q-14 -4 -59 -14q-64 -13 -130 -13q-124 0 -276 50z" />
<glyph unicode="2" horiz-adv-x="1278" d="M6 1395q27 21 87.5 63t145 89.5t148.5 58.5t143.5 14.5t165.5 3.5q58 0 77 -0.5t30 -1.5q334 -65 334 -336q0 -109 -46.5 -231.5t-123.5 -255.5q-108 -190 -262 -334q48 8 118 8q140 0 266.5 -28.5t182.5 -47.5l-178 -415q-20 17 -66.5 50.5t-126.5 74.5t-151 53 q-52 8 -127 8q-116 0 -251.5 -21t-229 -43.5t-130.5 -33.5q36 49 143.5 146.5t278.5 170.5q90 102 166 212.5t125 226.5t49 221q0 47 -12 94q-26 91 -67 136.5t-83.5 62.5t-150.5 51q-67 20 -191 20q-81 0 -156 -6t-108 -10z" />
<glyph unicode="3" horiz-adv-x="1315" d="M-55 817q71 17 230 41.5t353 24.5q87 45 139 111.5t52 156.5q0 142 -114 222t-228 106.5t-170 31.5q40 9 134 22t208 13q148 0 277.5 -33.5t214.5 -124.5t85 -249q0 -102 -74 -171t-204 -114q399 -88 399 -412q0 -149 -150 -242t-366 -137t-410.5 -57.5t-351.5 -13.5 q50 6 159.5 26.5t262 73.5t267 149t114.5 228q0 122 -106.5 196t-274.5 109q-108 -6 -184 -6q-27 1 -47 1.5t-27 0.5q37 0 148 25q-150 22 -336 22z" />
<glyph unicode="4" horiz-adv-x="1278" d="M-10 674l47 47q-15 114 -20 150t-9 63l199 -41l518 524q10 70 19.5 122t13.5 71l108 -51l80 79q-3 0 117 -174l162 -75q-2 0 -45 -93q32 -45 34 -45q-6 0 -69 -26q-85 -188 -117 -328q-15 -65 -22 -168l256 -53l-258 -29v-12q0 -191 27.5 -372t45.5 -263 q-55 44 -159.5 192.5t-176.5 423.5q-131 -14 -319 -36.5t-276.5 -34.5t-88.5 -17q0 1 -18 170q-7 -4 -18.5 -9.5t-16.5 -8t-9 -4t-5 -2.5zM373 858l332 -67q-13 91 -13 202v21q-232 -112 -319 -156z" />
<glyph unicode="5" horiz-adv-x="1327" d="M-18 952q15 6 77 41.5t170 106.5q115 77 170 241q-116 -13 -209 -38t-133 -39q35 46 133 134t254 154q2 33 2 66q2 0 21 -55q160 65 340 65q165 -4 308 -55.5t206 -85.5l-217 -375q-37 27 -125 82.5t-184 99.5q-54 27 -126.5 40.5t-144.5 13.5h-8q8 -74 8 -121 q0 -211 -100 -350q-21 -28 -45 -54q160 13 235 13q282 0 464 -92.5t182 -325.5q0 -142 -137.5 -231t-332.5 -131t-374 -55t-318 -13q80 9 242.5 48t325 140t163.5 266q0 148 -148 222t-362 96q-64 -64 -120 -105.5t-82 -58.5z" />
<glyph unicode="6" horiz-adv-x="1266" d="M-8 1034l69 -6q22 59 52.5 118t72 117t96.5 113t124 99q73 49 161.5 85.5t162.5 57t116.5 28t60.5 9.5l39 -430q-46 0 -147 -5t-211 -24q-157 -25 -344 -182l180 -15q-3 -18 -9.5 -59t-15.5 -117q110 13 215 13q282 0 464 -92.5t182 -325.5q0 -156 -161.5 -248 t-416.5 -135q7 -9 20 -23.5t18 -20t7 -7.5q-25 0 -119 39q-144 -20 -277 -27.5t-233 -7.5q49 6 158 28.5t225 67.5q-125 68 -229.5 172.5t-169.5 253.5q-40 94 -72 252q-3 -5 -6 -9t-4 -5q-4 0 6 53q-14 107 -14 233zM389 639q0 -216 211 -504q229 126 229 307q0 91 -62 155 t-158 100t-216 55q-4 -74 -4 -113z" />
<glyph unicode="7" horiz-adv-x="1315" d="M35 1292l291 336q22 -23 75 -72.5t138.5 -109t160.5 -82.5q155 -47 373 -59q65 50 129 95.5t88 61.5q-4 0 -98 -159q39 0 65.5 1.5t36.5 2.5q11 0 -125 -43q-93 -163 -164.5 -322.5t-99.5 -294.5q-20 -106 -20 -211q0 -151 31 -272.5t51 -169.5l-518 26q-3 0 -3 95 q0 101 13 219.5t50 252t105 251.5q51 87 138.5 179t195.5 185q-227 -59 -377 -59q-93 1 -213 34.5t-203.5 66t-119.5 48.5z" />
<glyph unicode="8" horiz-adv-x="1303" d="M2 418q0 123 98 203t256 129q-115 12 -235 12q16 4 60 12.5t104 18.5q-20 1 -34.5 1.5t-19.5 0.5q29 3 94.5 14t149.5 39q-180 46 -300 137t-120 240q7 215 324 299q-25 5 -47.5 8.5t-30.5 3.5q38 9 127.5 22t198.5 13q143 0 266.5 -34t204 -125t80.5 -249 q0 -93 -62 -160.5t-161 -109t-224 -64.5q110 -10 208.5 -37.5t182.5 -78t133.5 -126.5t49.5 -181q0 -143 -138 -232t-339 -132t-372.5 -55t-312.5 -12q44 5 146.5 26t208.5 58q-94 22 -174.5 50t-155 71t-120.5 103.5t-46 134.5zM422 418q0 -228 143 -332q134 59 220 144.5 t87 199.5q0 109 -84.5 177.5t-220.5 103.5q-145 -109 -145 -293zM438 1225q3 -193 168 -320q179 107 182 271q0 201 -247 301q-103 -115 -103 -252z" />
<glyph unicode="9" horiz-adv-x="1315" d="M55 1233q4 141 93.5 226.5t220.5 127.5q-31 8 -64.5 13t-44.5 6q45 10 149 25.5t242 15.5q127 0 240.5 -21t209.5 -74t154 -150.5t58 -242.5q0 -50 -17 -98q-7 -105 -64 -301.5t-212 -327.5q-146 -124 -290 -210.5t-251.5 -129.5t-168 -59t-83.5 -19q84 62 245 211.5 t278 343.5q52 88 75 148q7 25 15 55q-31 -8 -97 -20q24 -12 49 -22t33 -13q-65 0 -182 20q-188 -22 -381 -22q-31 1 -53.5 1.5t-30.5 0.5q35 3 116.5 17.5t174.5 45.5q-180 59 -297 168t-117 285zM438 1233q3 -237 176 -391q105 58 168 139.5t64 192.5q0 135 -87 224.5 t-216 137.5q-105 -132 -105 -303z" />
<glyph unicode=":" horiz-adv-x="504" d="M-12 1032l491 -24l-37 -406l-368 37zM0 393l492 -24l-37 -406l-357 37z" />
<glyph unicode=";" horiz-adv-x="492" d="M-158 -406q42 54 112 169.5t93 222.5q6 24 6 59q0 74 -15.5 153.5t-25.5 120.5l432 78q-2 -44 -11 -142t-35 -216t-68 -176q-71 -104 -181 -165t-190.5 -81t-116.5 -23zM-12 1032l491 -24l-37 -406l-368 37z" />
<glyph unicode="=" horiz-adv-x="1155" d="M0 391l184 240q58 -23 175.5 -58t226.5 -38q165 0 324.5 22t228.5 37q-41 -22 -141 -71t-237.5 -103t-248.5 -72q-44 -8 -109 -8q-107 0 -227.5 19t-175.5 32zM12 760l185 239q25 -10 89.5 -32t150 -42.5t161.5 -21.5q172 0 328 22.5t225 37.5q-41 -22 -141 -71 t-237.5 -103t-248.5 -72q-43 -8 -108 -8q-106 0 -227.5 19t-176.5 32z" />
<glyph unicode="?" horiz-adv-x="1130" d="M74 -25l61 295h320l-13 -295h-368zM117 1634q12 1 43 2.5t76 1.5q189 0 392 -39.5t360 -163.5t157 -354q0 -201 -196 -362.5t-393 -247t-294 -115.5q48 39 145.5 138t195.5 260t99 327q0 159 -129.5 281.5t-260.5 186t-195 85.5z" />
<glyph unicode="A" horiz-adv-x="1487" d="M-8 449l121 397q24 -10 87 -33t136 -43q37 65 70 109q103 132 391 333q-48 40 -89.5 71t-58.5 42l529 274q17 -23 54 -77t92.5 -155t103.5 -224t59 -234q4 -44 4 -67q0 -157 -53.5 -339t-107 -307.5t-79.5 -177.5q2 0 2 70q0 86 -6.5 196.5t-26 232t-51.5 220.5 q-66 -51 -149 -105.5t-183 -105t-204 -86.5q0 -56 -0.5 -93.5t-1.5 -82.5q0 -67 4 -154.5t6 -119.5l-498 102q4 37 19 125t41 197q-71 8 -129.5 19t-81.5 16zM711 737q180 23 422 97q-18 42 -46 86q-51 85 -178 196q-136 -231 -198 -379z" />
<glyph unicode="B" horiz-adv-x="1389" d="M0 1389l360 135q-26 5 -51.5 8.5t-34.5 3.5q20 4 92.5 15t102.5 14l121 45q-1 0 6 -39h39q120 0 224.5 -18t192.5 -62.5t141.5 -126t53.5 -201.5q0 -142 -147.5 -222.5t-380.5 -117.5q186 -5 334.5 -43t242 -129.5t93.5 -244.5q0 -143 -153.5 -232t-376.5 -132t-414 -55 t-347 -12q51 5 166 26t265 71t265 140.5t115 217.5q0 103 -86 170t-229 105q-52 -148 -149 -301t-179 -257.5t-119 -146.5q8 36 24.5 125.5t33 230.5t16.5 279q0 41 -4 123q-59 4 -143 4q16 5 56.5 12.5t84.5 11.5q-6 96 -36.5 197.5t-68.5 188t-67.5 141.5t-42.5 76z M614 1446q29 -199 29 -379q0 -73 -6 -147q178 98 178 256q0 169 -201 270z" />
<glyph unicode="C" horiz-adv-x="1217" d="M-12 803q0 359 272.5 543t547 231.5t409.5 48.5q-45 -13 -147.5 -57t-238.5 -141.5t-237.5 -258t-101.5 -378.5q3 -187 94.5 -334.5t212.5 -244t212.5 -144.5t131.5 -64q-72 0 -233 18.5t-378.5 93.5t-380.5 244t-163 443z" />
<glyph unicode="D" horiz-adv-x="1425" d="M16 543q0 168 29 293q41 164 154 344t241 344q-36 21 -58.5 32.5t-50.5 25t-40 18t-17 6.5q88 0 220 -19q7 9 12 15t6 8q-1 0 -4 -25q213 -29 419 -107t354.5 -244.5t148.5 -426.5q0 -277 -172 -450t-403 -252t-404 -99.5t-250 -21.5q38 11 124 46t193 105l-448 -135 q-6 30 -18 105t-24 196.5t-12 241.5zM440 971q0 -152 23 -258q13 -64 36.5 -197t38 -221.5t21.5 -130.5q367 256 367 655q-1 154 -67.5 284.5t-162.5 224.5t-207 165q-49 -301 -49 -522z" />
<glyph unicode="E" horiz-adv-x="1401" d="M0 1389l541 221q8 -31 24 -107t31 -180q49 15 117 43q133 52 218.5 141t115.5 138l339 -342q-69 -38 -222.5 -101.5t-313.5 -87.5q-75 -10 -154 -10q-49 0 -73 2q6 -73 6 -148q0 -47 -2 -69l626 131q-5 -36 -16.5 -113.5t-22 -156.5t-10.5 -111q0 3 -99 15t-202 22.5 t-303 30.5q-48 -211 -147 -379q212 95 333 108q85 10 213 10q107 0 187 -4.5t138 -10t79 -7.5l-256 -436q-12 14 -49.5 45t-113.5 69t-177 56q-67 13 -124.5 17.5t-131.5 4.5q-83 0 -213 -12q-62 -70 -115.5 -112.5t-75.5 -55.5q4 14 12.5 56t14.5 85q-60 -10 -92 -18 l-45 -12q0 2 145 84q39 223 39 440q0 36 -4 108q-58 5 -104.5 9.5t-69 6.5t-31.5 3l201 41q-4 30 -16 94q-17 81 -88 260q-33 5 -53.5 8t-29 4t-12.5 2q10 0 82 17q-30 70 -57 124.5t-39 76.5z" />
<glyph unicode="F" horiz-adv-x="1401" d="M0 1389l541 245q8 -34 26 -124t31 -187q89 34 115 43q133 52 218.5 141t115.5 138l339 -342q-69 -38 -222.5 -101.5t-313.5 -87.5q-75 -10 -154 -10q-49 0 -73 2q6 -73 6 -145q0 -54 -2 -78l626 125q-7 -39 -18 -103.5t-27 -173t-16 -129.5q0 4 -179 30t-417 56 q-40 -169 -112.5 -303.5t-147 -217.5t-121.5 -119t-68 -48q8 36 24.5 125.5t33 230.5t16.5 279q0 34 -0.5 55t-1.5 45q-61 9 -102.5 14.5t-68.5 8.5l-36 4l201 39q-4 36 -16 96q-17 81 -88 260q-33 5 -53.5 8t-29 4t-12.5 2q10 0 82 17q-30 70 -57 124.5t-39 76.5z" />
<glyph unicode="G" horiz-adv-x="1438" d="M-12 803q0 359 272.5 543t547 231.5t409.5 48.5q-45 -13 -147.5 -57t-238.5 -141.5t-237.5 -258t-101.5 -378.5q3 -204 111.5 -362.5t268.5 -272.5q157 126 160 311q0 117 -44 206.5t-87 131t-65 55.5l512 -4q24 -35 60 -119t36 -188q0 -59 -19 -119q-76 -223 -452 -342 q39 -22 95.5 -49.5t74.5 -34.5q-37 0 -127.5 7.5t-212.5 31.5q-92 -20 -168.5 -30.5t-106.5 -12.5q22 4 69.5 17t115.5 44q-137 34 -260 87.5t-231.5 143.5t-171 217.5t-62.5 293.5z" />
<glyph unicode="H" horiz-adv-x="1462" d="M0 676l217 65q-3 71 -20 156q-26 125 -92 272t-105 220l614 221q2 -19 6.5 -81.5t7.5 -141.5t3 -158q0 -211 -23 -369l221 68q43 162 107 287.5t128 207.5t106 121.5t59 52.5q-6 -31 -19.5 -109.5t-27.5 -208.5t-17 -249l285 88q-21 -30 -52.5 -98t-31.5 -150 q-12 -34 -12 -82q0 -50 14 -93.5t21 -43.5q0 3 -185 6q24 -80 76.5 -180t95.5 -164.5t62 -91.5l-602 -233q-14 71 -35 228.5t-21 330.5q0 80 4 119q-73 0 -217 4q-43 -156 -110 -280.5t-134 -208t-112.5 -125.5t-63.5 -56q8 36 24.5 125.5t33 230.5t16.5 279v39 q-80 1 -139.5 1.5t-81.5 0.5z" />
<glyph unicode="I" horiz-adv-x="651" d="M0 1389l614 221q2 -19 6.5 -81.5t7.5 -141.5t3 -158q0 -248 -29 -406q-43 -250 -144 -432.5t-186 -272t-125 -118.5q8 36 24.5 125.5t33 230.5t16.5 279q0 155 -24 262q-26 125 -92 272t-105 220z" />
<glyph unicode="J" horiz-adv-x="1118" d="M2 293l266 321q42 -45 123.5 -124t153.5 -125q58 -39 125 -60q55 305 55 479q0 85 -12 162q-20 127 -97 274t-124 218l565 209q14 -67 34.5 -218.5t20.5 -320.5q0 -125 -18 -236q-56 -332 -267 -614q97 -21 156.5 -28t87.5 -9q-37 -29 -137 -74.5t-254 -54.5 q-31 -29 -50.5 -45t-27.5 -22l16 65q-70 0 -141 14q-130 23 -268.5 87t-206.5 102z" />
<glyph unicode="K" horiz-adv-x="1628" d="M0 1389l590 221q13 -68 33 -217.5t20 -325.5v-59q5 7 15.5 19.5t19.5 23.5q63 81 111 188.5t73 188t33 114.5l465 -127q-48 -82 -157 -234.5t-238 -254.5q-48 -40 -134 -84q282 -117 373 -189q128 -99 247 -271.5t173 -266.5l-489 -127q-34 75 -112 227.5t-155 263.5 q-86 124 -229 262q-15 -5 -37 -16q-36 -114 -105 -235t-149.5 -233.5t-129.5 -172t-71 -84.5q16 70 41 227t33 338q-109 -42 -147 -57t-60 -23q23 15 83.5 57.5t123.5 92.5q0 155 -24 262q-26 125 -92 272t-105 220z" />
<glyph unicode="L" horiz-adv-x="1192" d="M20 1397l566 209q14 -67 34.5 -218.5t20.5 -320.5q0 -125 -18 -236q-43 -243 -170 -471q88 40 163 66q96 35 271 35q100 0 186 -8.5t123 -14.5l-106 -446q-68 40 -194.5 100t-207.5 64q-26 2 -86 2q-147 0 -301 -11q-63 -72 -107 -110.5t-63 -52.5q5 15 17.5 63t21.5 90 q-59 -5 -74 -6t-33 -2.5t-24 -1.5q14 10 59.5 40.5t91.5 57.5q64 310 64 518q0 85 -12 162q-20 127 -97.5 274t-124.5 218z" />
<glyph unicode="M" horiz-adv-x="1597" d="M4 1417l565 209q4 -18 12 -63t19 -115l449 166q4 -17 12.5 -68.5t15.5 -107.5l475 176q4 -17 12 -63.5t18 -119.5t18 -162t8 -194q0 -128 -19 -235q-33 -190 -110.5 -352t-159 -266.5t-139 -158t-82.5 -71.5q14 46 41 158t54.5 283.5t27.5 318.5q0 87 -13 161 q-17 117 -108 295q4 -86 4 -133q0 -128 -19 -235q-33 -190 -110.5 -352t-159 -266.5t-139 -158t-82.5 -71.5q14 46 41 158t54.5 283.5t27.5 318.5q0 84 -12 161q-19 107 -80 236v-62q0 -118 -19 -235q-33 -190 -110.5 -352t-159 -266.5t-139 -158t-82.5 -71.5q14 46 41 158 t54.5 283.5t27.5 318.5q0 77 -13 162q-20 131 -97 275.5t-124 215.5z" />
<glyph unicode="N" horiz-adv-x="1597" d="M-2 1284q8 1 22.5 1.5t61.5 0.5q-22 40 -45.5 79t-32.5 52l565 209q4 -19 13.5 -70.5t20 -138t15.5 -174.5q220 -40 349 -129q46 143 122 261.5t134 181.5t84 85q-19 -70 -47.5 -229t-28.5 -336q0 -184 45 -315q94 -143 151 -268q62 -86 108.5 -143.5t68.5 -82.5 l-449 -286q-36 67 -102 219.5t-107 322.5q-97 181 -188 277q-69 72 -142 127q-2 -25 -10 -76q-33 -190 -110.5 -352t-159 -266.5t-139 -158t-82.5 -71.5q14 46 41 158t54.5 283.5t27.5 318.5q0 77 -13 162q-12 72 -43.5 154t-70.5 155q-44 22 -73 33.5t-40 15.5z" />
<glyph unicode="O" horiz-adv-x="1376" d="M12 852q0 202 74 346.5t190.5 231t258.5 135.5q-36 23 -58 35.5t-31 17.5q31 0 84 -4.5t117 -16.5q99 26 180.5 33.5t143.5 7.5q-17 -5 -63.5 -25.5t-96.5 -53.5q152 -45 278 -130t208.5 -235.5t82.5 -362.5q0 -360 -218 -545.5t-437.5 -236t-327.5 -53.5q24 9 78 37 t123 82q-102 32 -195.5 81.5t-183 136.5t-147 217.5t-60.5 301.5zM430 840q3 -232 71 -395.5t163 -274.5q124 112 205 277t81 384q-3 199 -82 354t-196 265q-66 -64 -120.5 -152t-88 -203.5t-33.5 -254.5z" />
<glyph unicode="P" horiz-adv-x="1352" d="M12 1389l326 124q-50 21 -83 32.5t-46 16.5q13 1 47.5 2t85.5 1q38 0 65 -0.5t60 -1.5l123 47q1 0 10 -60q143 -14 271.5 -47t237.5 -94t176 -161.5t67 -239.5q0 -135 -135 -246.5t-332.5 -188.5t-415.5 -131q-65 -110 -134.5 -204.5t-118.5 -154.5t-69 -83 q9 43 27 145.5t33 239.5q-54 -9 -70.5 -12t-25.5 -4q1 0 98 39q10 122 10 231q0 151 -22 258q-24 120 -86.5 269.5t-98.5 222.5zM547 588q310 208 313 420q0 192 -235 352q9 -81 13.5 -152t4.5 -141q0 -174 -29 -293q-18 -76 -67 -186z" />
<glyph unicode="Q" horiz-adv-x="1376" d="M12 852q0 202 74 346.5t190.5 231t258.5 135.5q-36 23 -58 35.5t-31 17.5q31 0 84 -4.5t117 -16.5q99 26 180.5 33.5t143.5 7.5q-17 -5 -63.5 -25.5t-96.5 -53.5q152 -45 278 -130t208.5 -235.5t82.5 -362.5q0 -216 -84.5 -368.5t-230.5 -253.5q48 -48 93.5 -108.5 t75 -106.5t40.5 -64l-313 -118q-11 48 -37 138t-56 146q-149 -60 -281 -79.5t-190 -20.5q24 9 78 37t123 82q-102 32 -195.5 81.5t-183 136.5t-147 217.5t-60.5 301.5zM430 840q3 -232 71 -395.5t163 -274.5q49 44 84 84q-61 60 -112 99t-75 55q145 0 264 -43q39 61 67 134 t43 157.5t15 174.5q-3 199 -82 354t-196 265q-66 -64 -120.5 -152t-88 -203.5t-33.5 -254.5z" />
<glyph unicode="R" horiz-adv-x="1622" d="M12 1389l326 124q-50 21 -83 32.5t-46 16.5q13 1 47.5 2t85.5 1q38 0 65 -0.5t60 -1.5l123 47q1 0 10 -60q143 -14 271.5 -47t237.5 -94t176 -161.5t67 -239.5q0 -221 -389 -402q249 -69 352 -149q128 -101 205.5 -204t103.5 -151l-489 -127q-3 13 -15 48t-48 105 t-93 155q-94 136 -221 241q-154 -50 -291 -84q-61 -103 -133.5 -202.5t-119.5 -157t-67 -80.5q9 43 27 145.5t33 239.5q-54 -9 -70.5 -12t-25.5 -4q1 0 98 39q10 122 10 231q0 151 -22 258q-24 120 -86.5 269.5t-98.5 222.5zM545 588q40 25 63 45q-24 12 -35 18 q-5 -12 -28 -63zM590 690q61 -11 74 -14q193 165 196 332q0 192 -235 352q9 -81 13.5 -152t4.5 -141q0 -174 -29 -293q-8 -34 -24 -84z" />
<glyph unicode="S" horiz-adv-x="1536" d="M-6 1139q0 91 31 159.5t86 112.5l116 217q-4 0 168 -104q90 14 191 14q126 0 231 -14.5t150 -24.5q-48 -3 -147.5 -23t-198.5 -69q5 -2 8.5 -4t11.5 -6q122 -54 301 -54q163 0 308.5 31.5t209.5 52.5q-34 -40 -130.5 -120.5t-282.5 -162t-420 -81.5q-79 2 -195 20 q24 -99 125 -174q138 23 283 23q120 0 224.5 -18t192.5 -62.5t141.5 -126t53.5 -201.5q0 -44 -16 -84l94 -82q-36 -39 -125 -119t-227 -162t-269 -89q-26 -2 -78 -2q-295 0 -517.5 95.5t-311.5 158.5q20 -2 87.5 -4.5t105.5 -2.5q177 0 346 22.5t290 80.5q75 36 168 102 q21 47 21 99q0 131 -121 223q-146 4 -288 20t-285.5 57.5t-237.5 116t-94 185.5zM608 877q105 -58 248 -89q-93 53 -248 89z" />
<glyph unicode="T" horiz-adv-x="1327" d="M-12 1178l243 399q50 -24 162.5 -68.5t237.5 -72.5q11 110 14 159.5t4 73.5q6 -11 20 -42t42 -95t47 -113h10q246 0 448 36.5t287 60.5q-86 -58 -272.5 -167.5t-382.5 -183.5q23 -69 39.5 -135.5t26 -128.5t10.5 -113q0 -116 -37.5 -252t-87.5 -251t-86.5 -186t-53.5 -99 l-462 231q13 13 43 47.5t79.5 103.5t103 168.5t91.5 215.5q43 128 76 334q-23 -2 -70 -2q-153 0 -306.5 30t-225.5 50z" />
<glyph unicode="U" horiz-adv-x="1524" d="M10 530q0 128 19 236q33 192 110 353t162 269t139.5 158t79.5 68q-14 -46 -41 -158t-54.5 -283.5t-27.5 -318.5q0 -88 13 -162q23 -151 165 -401q204 256 277 440q26 72 41.5 198.5t22.5 266.5t8.5 220t1.5 118l594 -102q-14 -68 -53 -219t-112.5 -343t-164.5 -301 q-123 -149 -275.5 -263.5t-282 -182t-214 -99.5t-117.5 -42q5 0 139 147l-374 -137q-14 67 -35 218.5t-21 319.5z" />
<glyph unicode="V" horiz-adv-x="1389" d="M14 848q0 308 99.5 518.5t165.5 288.5v-45q0 -189 25.5 -436t103.5 -426q35 -78 124 -189q162 229 213 369q34 86 56.5 233t32 261t12.5 165l559 -233q-9 -27 -35 -96t-72.5 -173t-112 -218.5t-136.5 -198.5q-134 -164 -338 -312q26 -25 52.5 -51t35.5 -35l-469 -299 q-5 0 -76 125q-74 -32 -105.5 -44t-46.5 -17q4 0 115 129q-72 139 -127.5 284.5t-69.5 272.5q-6 64 -6 127z" />
<glyph unicode="W" horiz-adv-x="1597" d="M10 530q0 128 19 236q33 192 110 353t162 269t139.5 158t79.5 68q-14 -46 -41 -158t-54.5 -283.5t-27.5 -318.5q0 -88 13 -162q18 -118 108 -295q-4 86 -4 133q0 125 18 236q34 193 111 353.5t162 268.5t139.5 158t79.5 68q-14 -46 -41 -158t-54.5 -283.5t-27.5 -318.5 q0 -85 12 -162q19 -105 80 -235v61q0 128 19 236q33 192 110 353t162 269t139.5 158t79.5 68q-27 -102 -68.5 -322t-41.5 -426q0 -94 12 -174q14 -87 59 -195t88 -187t62 -110l-565 -208q-4 18 -11 57.5t-18 120.5l-451 -166q-5 0 -28 176l-475 -176q-14 67 -35 218.5 t-21 319.5z" />
<glyph unicode="X" horiz-adv-x="1364" d="M-16 1219l385 407q78 -45 232 -156t273 -251q147 79 289 139t199 80q-12 -10 -38 -32.5t-80 -72t-131 -122t-138 -136.5q174 -303 248 -619.5t88 -467.5q-83 142 -253.5 406.5t-309.5 420.5q-65 -84 -101 -156q-89 -181 -116 -381t-27 -298l-512 196q33 98 118.5 287.5 t202.5 329.5q87 102 213 202q-146 89 -305.5 146.5t-236.5 77.5z" />
<glyph unicode="Y" horiz-adv-x="1253" d="M-18 459q96 16 288 77.5t355 184.5q12 8 16 12q-72 48 -127.5 98.5t-103.5 116.5q-144 204 -192 396.5t-52 279.5q23 -34 86.5 -118.5t168 -199t226.5 -212.5q97 -78 223 -115q94 121 178.5 248t135.5 212t71 120q-5 -32 -21.5 -116.5t-51 -221t-82.5 -271.5q56 2 98 10 t57 13l-233 -410q-11 0 -86 27q-56 -98 -123 -176q-84 -100 -207 -195t-212.5 -150t-129.5 -77z" />
<glyph unicode="Z" horiz-adv-x="1536" d="M41 1339q50 -12 170 -29.5t252 -17.5q216 0 362 62q78 78 129 123.5t74 64.5l39 -45q77 53 126 90.5t71 54.5l270 -468q-51 -19 -162 -55t-266 -72q-208 -144 -309 -261q-69 -79 -142 -202q52 -6 97 -15q173 -36 317.5 -120.5t237 -173.5t141.5 -154t65 -92 q-94 34 -293.5 84.5t-392.5 50.5q-73 0 -141 -12q-97 -20 -266 -84q-30 -84 -41.5 -117t-16.5 -49q-2 0 -2 127v12q-54 -23 -84.5 -37.5t-44.5 -21.5l-176 546q17 4 64.5 14t122 22t157.5 20q40 259 123 395q8 15 35 55q-139 35 -256.5 104.5t-177.5 122.5t-82 78z" />
<glyph unicode="a" horiz-adv-x="1118" d="M-6 336l90 299q18 -8 69 -25.5t99 -29.5q20 35 53 79q80 98 293 250q-37 29 -59 45.5l-34 25.5t-18 13l396 207q23 -30 69.5 -103.5t99 -188.5t64.5 -226q2 -16 2 -49q0 -90 -26 -198.5t-57.5 -193t-58.5 -144.5t-38 -83v54q0 116 -12 243.5t-49 241.5 q-190 -148 -402 -223q-2 -43 -2 -131q0 -69 3 -126t5 -81l-372 78q3 28 13 89t32 152q-56 5 -99.5 13t-60.5 12zM532 551q119 14 318 74q-12 27 -35 65q-41 66 -133 148q-63 -111 -89.5 -160t-60.5 -127z" />
<glyph unicode="b" horiz-adv-x="1044" d="M0 1042l272 103q-26 4 -42 6t-23 2q15 3 60 10t83 11l92 34q1 0 4 -28h31q118 0 221.5 -26t170.5 -95t67 -187q0 -74 -57.5 -126t-149.5 -82.5t-201 -45.5q140 -2 255 -30.5t187 -98t72 -184.5q0 -197 -328.5 -260t-639.5 -63q38 4 128 21t199.5 54t195 104.5t85.5 162.5 q0 143 -236 206q-39 -112 -112 -227.5t-134 -193.5t-89 -109q15 63 38 192t23 265q0 67 -8 112l-109 2h-2q0 2 109 19q-8 58 -15 84q-17 74 -48 151t-58.5 135t-40.5 82zM463 1085q20 -150 20 -284q0 -37 -4 -111q133 75 133 193q0 126 -149 202z" />
<glyph unicode="c" horiz-adv-x="909" d="M-10 602q0 269 204.5 407.5t410.5 174.5t308 37q-60 -17 -181.5 -78t-242 -201t-120.5 -348q2 -253 185 -398.5t304 -191.5q-54 0 -176.5 14t-285.5 71t-284.5 182t-121.5 331z" />
<glyph unicode="d" horiz-adv-x="1069" d="M12 408q0 130 23 219q31 123 114.5 259t178.5 257q-44 27 -76 41.5t-45 19.5q67 0 164 -12q9 9 11 12t3 4q-1 0 -4 -18q162 -23 315.5 -81.5t265 -183.5t111.5 -319q0 -210 -129 -339t-303 -188.5t-302.5 -74.5t-186.5 -16q28 8 95 36t142 76l-336 -100 q-10 51 -25.5 166.5t-15.5 241.5zM330 731q0 -107 18 -196q56 -278 72 -414q120 87 197 208t77 285q0 88 -30 167t-77.5 141t-106.5 113t-111 83q-39 -211 -39 -387z" />
<glyph unicode="e" horiz-adv-x="1032" d="M0 1042l406 166q6 -23 17 -80t23 -137q28 10 46 16.5t43 16.5q101 40 164 106.5t85 102.5l256 -256q-23 -12 -77.5 -38t-148 -58.5t-177.5 -44.5q-46 -7 -115 -7q-37 0 -55 2q4 -72 4 -112q0 -35 -2 -51l471 98q-9 -62 -23 -163t-14 -124q0 4 -113 16.5t-339 34.5 q-38 -161 -111 -284q164 71 250 82q49 6 153 6q111 0 191.5 -6.5t118.5 -10.5l-193 -327q-9 11 -36 33.5t-85 52t-133 43.5q-84 16 -192 16q-80 0 -162 -10q-46 -53 -85.5 -84.5t-55.5 -40.5l20 106q-50 -8 -71 -13.5t-31 -8.5h-1q0 4 109 61q29 180 29 330q0 27 -0.5 44 t-1.5 38q-57 5 -88.5 8t-45 4t-20.5 2l150 31q-3 40 -13 72q-19 91 -65 192q-30 5 -47.5 8.5t-24.5 3.5q3 0 62 13q-25 60 -44 97.5t-28 53.5z" />
<glyph unicode="f" horiz-adv-x="1044" d="M0 1042l406 185q6 -26 18.5 -88t24.5 -146q28 11 86 31q101 40 164 106.5t85 102.5l256 -256q-23 -12 -77.5 -38t-148 -58.5t-177.5 -44.5q-46 -7 -115 -7q-37 0 -55 2q4 -72 4 -110q0 -39 -2 -59l471 94q-11 -65 -28 -171.5t-17 -131.5q0 2 -40.5 8.5t-116 16.5t-128 17 t-164.5 21q-29 -128 -82.5 -226.5t-106 -158.5t-91.5 -91t-55 -40q14 62 34.5 197t20.5 278q0 27 -0.5 43t-1.5 35q-46 4 -80.5 8.5t-50.5 6.5t-23 3l150 29q-3 41 -13 74q-19 91 -65 192q-30 5 -47.5 8.5t-24.5 4.5q3 0 62 12q-25 60 -44 97.5t-28 53.5z" />
<glyph unicode="g" horiz-adv-x="1081" d="M-10 602q0 269 204.5 407.5t410.5 174.5t308 37q-60 -17 -181.5 -78t-242 -201t-120.5 -348q2 -274 284 -477q118 95 121 233q0 92 -32.5 156.5t-65.5 96.5t-49 42l385 -2q18 -26 44.5 -88t26.5 -141q0 -48 -14 -90q-29 -89 -119 -151.5t-217 -104.5q42 -24 77 -41.5 t48 -22.5q-113 0 -256 29q-78 -18 -130 -24.5t-75 -8.5q16 3 56 15t84 32q-144 35 -265 99t-201.5 178.5t-80.5 277.5z" />
<glyph unicode="h" horiz-adv-x="1044" d="M-33 514l164 49q-8 78 -16 117q-20 94 -69.5 204t-78.5 165l461 165q3 -33 7.5 -112.5t4.5 -177.5q0 -159 -16 -271l168 52q40 152 106 263.5t117 165t74 70.5q-11 -53 -28 -173.5t-19 -250.5l213 66q-16 -22 -40 -74.5t-24 -114.5q-10 -33 -10 -61q0 -33 11.5 -66.5 t17.5 -33.5q0 3 -142 6q19 -63 58 -136t72.5 -123.5t48.5 -70.5l-453 -176q-10 53 -25.5 171t-15.5 245q0 63 4 96q-40 1 -74 1.5t-88 0.5q-61 -215 -161.5 -339t-155.5 -165q14 62 34.5 197t20.5 278v31q-100 2 -124.5 2h-41.5z" />
<glyph unicode="i" horiz-adv-x="479" d="M0 1042l461 166q3 -33 7.5 -112.5t4.5 -177.5q0 -184 -20 -300q-33 -186 -108.5 -323.5t-139.5 -205t-94 -89.5q14 62 34.5 197t20.5 278q0 123 -19 199q-17 74 -48 151t-58.5 135t-40.5 82z" />
<glyph unicode="j" horiz-adv-x="823" d="M2 219l199 242q31 -34 95 -95t114 -92q38 -24 92 -47q41 219 41 363q0 72 -8 121q-15 95 -73 204.5t-93 163.5l424 156q10 -51 25.5 -161.5t15.5 -244.5q0 -101 -13 -174q-44 -252 -200 -462q66 -14 113.5 -19.5t68.5 -7.5q-28 -21 -103 -55.5t-188 -40.5 q-21 -21 -37 -34.5t-22 -17.5q2 0 12 50q-61 0 -107 10q-70 12 -152 45t-132 58t-72 38z" />
<glyph unicode="k" horiz-adv-x="1204" d="M0 1042l442 166q10 -51 25.5 -162.5t15.5 -244.5v-41q9 8 25 28q67 84 108.5 197.5t55.5 171.5l348 -96q-36 -61 -117.5 -175.5t-179.5 -191.5q-53 -38 -100 -61q209 -85 280 -144q66 -52 136.5 -140.5t116 -160t63.5 -102.5l-367 -96q-11 25 -35 75t-74 142t-92 153 q-73 107 -174 197q-10 -4 -26 -12q-37 -113 -112.5 -234t-137 -199.5t-90.5 -111.5q12 53 31 172.5t24 251.5q-66 -25 -102.5 -39t-53.5 -20q17 10 56.5 36.5t99.5 73.5q0 123 -19 199q-17 74 -48 151t-58.5 135t-40.5 82z" />
<glyph unicode="l" horiz-adv-x="897" d="M16 1049l424 155q10 -50 24.5 -162.5t14.5 -238.5q0 -112 -12 -178q-34 -198 -131 -357q73 32 127 51q71 27 205 27q73 0 137 -6t92 -10l-80 -336q-51 30 -146 75.5t-155 47.5q-20 2 -70 2q-73 0 -221 -8q-43 -52 -77.5 -82.5t-49.5 -40.5q4 0 31 116l-42 -3t-31 -2.5 t-20.5 -2t-6.5 -0.5q10 8 40 28t74 46q18 86 32.5 193t14.5 198q0 70 -8 119q-11 68 -47.5 150t-69.5 138.5t-49 80.5z" />
<glyph unicode="m" horiz-adv-x="1192" d="M4 1063l424 158q2 0 21 -136l337 125q3 -13 8.5 -43t12.5 -88l358 131q10 -50 24.5 -162.5t14.5 -238.5q0 -112 -12 -178q-25 -146 -81.5 -263.5t-118 -197t-106 -121t-63.5 -55.5q10 35 30.5 118t41 210t20.5 245q0 70 -8 119q-15 91 -84 227q4 -68 4 -108 q0 -108 -12 -174q-33 -185 -114.5 -327.5t-151.5 -214t-103 -95.5q10 35 31.5 124.5t40.5 212t19 234.5q0 73 -9 121q-12 83 -61 180v-49q0 -112 -12 -178q-25 -144 -82 -263.5t-118 -197t-105.5 -119t-63.5 -55.5q10 35 30.5 118.5t41 209.5t20.5 243q0 70 -8 119 q-14 94 -72.5 205t-93.5 164z" />
<glyph unicode="n" horiz-adv-x="1192" d="M-2 963q6 1 17 1.5t46 0.5q-20 40 -35 64t-22 34l424 158q3 -14 9.5 -53.5t14 -103.5t11.5 -130q179 -38 262 -98q52 155 132.5 257t123.5 140q-14 -53 -35.5 -173t-21.5 -253q0 -139 30 -232q70 -108 117 -208q40 -54 77.5 -100.5t53.5 -65.5l-336 -215 q-26 51 -74.5 163.5t-82.5 243.5q-67 131 -140 207q-55 57 -106 96q-4 -38 -8 -57q-25 -144 -82 -263.5t-118 -197t-105.5 -119t-63.5 -55.5q10 35 30.5 118.5t41 209.5t20.5 243q0 70 -8 119q-16 100 -86 232q-29 13 -53.5 23.5t-32.5 13.5z" />
<glyph unicode="o" horiz-adv-x="1020" d="M10 639q0 221 110.5 347.5t280.5 187.5q-11 8 -34.5 22.5t-30.5 17.5q59 0 149 -16q125 31 244 32q-13 -4 -44.5 -18t-76.5 -43q115 -34 208.5 -96.5t156.5 -174t63 -273.5q0 -269 -163.5 -410t-328 -179t-245.5 -40q18 7 58.5 28.5t93.5 61.5q-82 26 -149 61.5 t-135.5 102.5t-111 162.5t-45.5 226.5zM324 631q1 -124 28.5 -222.5t66.5 -167.5t81 -114q92 85 152.5 208.5t60.5 289.5q-2 263 -207 465q-79 -77 -130.5 -191.5t-51.5 -267.5z" />
<glyph unicode="p" horiz-adv-x="1020" d="M10 1042l244 95q-48 19 -67 25t-29 9q9 1 34.5 2t61.5 1q13 0 40.5 -1t51.5 -2l96 37q1 0 9 -45q146 -14 271 -56t208.5 -129.5t83.5 -221.5q0 -79 -61 -146t-160.5 -119.5t-206.5 -89.5t-238 -71q-66 -111 -135 -201t-102 -129q7 32 21 113t22 176q-46 -9 -54.5 -10.5 t-15.5 -2.5q3 0 72 29q8 110 8 174q0 117 -17 195q-20 97 -65 205t-72 163zM408 440q105 71 170.5 150t66.5 166q0 138 -174 264q12 -132 12 -219q0 -130 -22 -219q-16 -59 -53 -142z" />
<glyph unicode="q" horiz-adv-x="1032" d="M10 639q0 221 110.5 347.5t280.5 187.5q-11 8 -34.5 22.5t-30.5 17.5q59 0 149 -16q125 31 244 31q-13 -4 -44.5 -17.5t-76.5 -42.5q115 -34 208.5 -96.5t156.5 -174t63 -273.5q0 -300 -235 -469q56 -57 96.5 -117.5t58.5 -91.5l-235 -88q-8 36 -28 104.5t-42 108.5 q-112 -45 -210.5 -60t-141.5 -16q18 7 58.5 28.5t93.5 61.5q-82 26 -149 61.5t-135.5 102.5t-111 162.5t-45.5 226.5zM324 631q1 -124 28.5 -222.5t66.5 -167.5t81 -114q28 25 59 63q-39 42 -79 72.5t-58 42.5q115 0 196 -33q95 153 95 353q-2 263 -207 465 q-79 -77 -130.5 -191.5t-51.5 -267.5z" />
<glyph unicode="r" horiz-adv-x="1217" d="M10 1042l244 95q-48 19 -67 25t-29 9q9 1 34.5 2t61.5 1q13 0 40.5 -1t51.5 -2l96 37q1 0 9 -45q146 -14 271 -56t208.5 -129.5t83.5 -221.5q0 -167 -293 -301q188 -51 266 -113q96 -75 154.5 -151.5t77.5 -112.5l-367 -96q-4 22 -30 82.5t-87 148.5q-68 101 -166 180 q-129 -42 -219 -63q-48 -81 -100.5 -153t-88 -116t-50.5 -61q7 32 21 113t22 176q-46 -9 -54.5 -11t-15.5 -2q3 0 72 29q8 110 8 174q0 117 -17 195q-20 97 -65 205t-72 163zM408 438q12 9 24.5 17.5t24.5 17.5q-11 8 -27 16q-6 -16 -10 -24.5t-12 -26.5zM440 518 q33 -8 58 -10q144 127 147 248q0 138 -174 264q12 -132 12 -219q0 -130 -22 -219q-11 -38 -21 -64z" />
<glyph unicode="s" horiz-adv-x="1130" d="M-4 854q0 17 4 49q11 93 82 154l88 164q-8 0 125 -78q59 10 143 10q103 0 178.5 -11t108.5 -18q-35 -2 -110 -17t-148 -52q6 -2 14 -6q90 -41 226 -41q116 0 228 23.5t161 39.5q-14 -17 -57 -56t-121.5 -89.5t-194 -89.5t-252.5 -39q-64 3 -145 16q17 -74 92 -129 q131 16 213 16q118 0 221 -25.5t170.5 -94.5t67.5 -187q0 -33 -15 -63l72 -62q-61 -66 -195 -168.5t-270 -109.5q-18 -2 -57 -2q-223 0 -389.5 72t-233.5 120q15 -1 54 -2.5t94 -1.5q131 0 258.5 16.5t216.5 59.5q62 30 125 78q16 35 16 73q0 106 -94 168 q-157 6 -307.5 30.5t-259.5 86t-109 166.5zM457 659q72 -41 188 -69q-66 39 -188 69z" />
<glyph unicode="t" horiz-adv-x="1044" d="M-10 883l184 301q38 -19 119 -52t182 -55q5 39 6 60.5t3.5 59t2.5 44v10.5q9 -19 34 -70.5t54 -115.5q186 0 337.5 27t215.5 45q-65 -44 -204.5 -125.5t-286.5 -137.5q52 -168 55 -282q0 -110 -44.5 -245t-87 -222.5t-64.5 -124.5l-349 174q40 39 113 140.5t125 260.5 q29 87 59 250q-18 -2 -55 -2q-115 0 -230 22.5t-169 37.5z" />
<glyph unicode="u" horiz-adv-x="1143" d="M8 395q0 102 15 180q32 187 113 327.5t151.5 212t103.5 95.5q-23 -79 -57.5 -244.5t-34.5 -326.5q0 -70 8 -119q19 -114 125 -301q68 83 123 169t84 161q33 90 44 289t11 313l447 -78q-10 -51 -39 -162.5t-84 -255t-125 -227.5q-91 -110 -204.5 -196.5t-216.5 -139.5 t-162.5 -76t-84.5 -30q11 11 39 40t66 72l-281 -104q-10 50 -25.5 162.5t-15.5 238.5z" />
<glyph unicode="v" horiz-adv-x="1057" d="M12 637q0 233 74 389.5t123 214.5q0 -93 6 -210t27 -245.5t63 -224.5q27 -60 92 -139q119 163 162 274q37 94 54 250.5t22 243.5l420 -174q-7 -20 -29 -77.5t-55.5 -130.5t-83 -159.5t-101.5 -146.5q-51 -64 -117 -124t-134 -110q35 -37 46.5 -47.5t18.5 -17.5l-352 -226 q-6 9 -20.5 33t-34.5 62q-59 -25 -81.5 -33t-33.5 -12q1 0 86 98q-132 245 -148 416q-4 64 -4 96z" />
<glyph unicode="w" horiz-adv-x="1204" d="M8 395q0 102 15 180q32 187 113 327.5t151.5 212t103.5 95.5q-23 -79 -57.5 -244.5t-34.5 -326.5q0 -70 8 -119q15 -93 84 -229q-4 74 -4 110q0 108 12 174q32 184 113.5 326t152 213.5t103.5 95.5q-22 -77 -56 -243.5t-34 -321.5q0 -73 8 -125q10 -68 59 -176v41 q0 94 15 180q32 187 112.5 327.5t151.5 213t104 96.5q-21 -76 -52.5 -238t-31.5 -321q0 -58 11 -133q14 -94 68 -205t87 -164l-424 -157q-2 0 -22 135l-336 -125q-3 0 -20 133l-359 -133q-10 50 -25.5 162.5t-15.5 238.5z" />
<glyph unicode="x" horiz-adv-x="1008" d="M-12 913l288 308q26 -15 83 -53t145 -109t151 -144q130 71 227 110t140 54q-37 -31 -115 -100.5t-176 -171.5q132 -230 186.5 -467t65.5 -350q-28 47 -91 150.5t-160 246t-171 225.5q-49 -65 -76 -116q-48 -99 -71 -210.5t-29 -190t-6 -111.5l-385 149q25 74 89.5 216 t152.5 245q31 37 66 70.5t93 83.5q-70 41 -164.5 80t-156 58.5t-86.5 26.5z" />
<glyph unicode="y" horiz-adv-x="934" d="M-14 344q32 5 106 24t183.5 64.5t193.5 108.5q3 2 5.5 4t6.5 4q-114 78 -174 162q-75 106 -115.5 219t-53 186.5t-13.5 102.5q39 -58 135.5 -176.5t224.5 -221.5q71 -54 168 -88q66 85 127.5 177.5t104 162t57.5 96.5q-8 -55 -37 -183.5t-80 -272.5q46 3 75.5 8t41.5 8 l-176 -307q-8 0 -64 20q-45 -75 -92 -131q-85 -102 -214 -191t-197 -126z" />
<glyph unicode="z" horiz-adv-x="1143" d="M31 1006q38 -9 129.5 -22t189.5 -13q168 0 268 43q51 52 94 90.5t60 52.5l29 -33q58 40 94.5 68t52.5 41l203 -352q-38 -14 -123.5 -41.5t-198.5 -55.5q-155 -108 -231 -194q-53 -62 -106 -152q30 -2 71 -10q131 -28 240 -91.5t179 -131t105.5 -115t47.5 -67.5 q-71 25 -221.5 62.5t-295.5 37.5q-60 0 -104 -8q-43 -9 -97.5 -27.5t-101.5 -38.5q-20 -52 -29.5 -81.5t-13.5 -41.5q-2 0 -2 97v8q-25 -11 -47 -21.5t-33.5 -16t-15.5 -7.5l-133 411q29 7 97 20t161 21q31 194 92 297q7 13 27 41q-106 27 -193 78t-132.5 92t-61.5 60z" />
<glyph unicode="&#xa2;" horiz-adv-x="1106" d="M-4 791q0 179 156 290.5t365.5 162t363.5 64t223 13.5q-41 -8 -131 -35t-212.5 -89.5t-215 -167t-92.5 -243.5q3 -154 132.5 -266.5t259 -167t193.5 -71.5q-65 0 -211 12t-341.5 60t-342.5 155.5t-147 282.5zM356 1513l254 136q23 -60 59 -185.5t38 -226.5 q-12 -7 -38 -28.5t-44.5 -32.5t-36.5 -11q-51 0 -94 101q-27 66 -71 139t-67 108zM453 344q0 74 7.5 106.5t22.5 32.5t32.5 -18t48.5 -52.5t46.5 -47.5t30.5 -13q28 -63 71 -137.5t66 -110.5l-254 -135q-17 51 -43 160t-28 215z" />
<glyph unicode="&#xa5;" horiz-adv-x="2048" d="M12 799q0 165 61.5 311.5t172 259.5t256.5 176.5t309 63.5t309 -63.5t256 -175t172 -259.5t62 -313q-1 -218 -108.5 -401t-291 -290.5t-399.5 -107.5t-399.5 107.5t-291 290.5t-108.5 401zM31 836q1 -14 3 -41t8.5 -80.5t14.5 -87.5q35 -134 109.5 -245t178 -191.5 t224.5 -123t248 -42.5q228 0 383.5 98.5t238.5 229t114 229.5t38 143q-10 111 -64.5 191t-136.5 120.5t-173 40.5q-128 0 -222 -69q-52 -38 -130.5 -148.5t-122.5 -165.5t-131.5 -104t-217.5 -49q-91 7 -157 42t-106.5 83t-65 99t-33.5 71zM270 922q0 -64 46 -110t110 -46 q65 0 112.5 45.5t47.5 110.5q0 43 -22 79t-57.5 56t-80.5 20q-43 0 -78.5 -20.5t-56.5 -56.5t-21 -78zM1057 719q0 66 45 112t110 46q66 0 113 -46t47 -112t-47 -111t-113 -45q-43 0 -78 20.5t-56 57t-21 78.5z" />
<glyph unicode="&#xa9;" horiz-adv-x="750" d="M-6 1040q0 149 98 256q110 119 277 119q147 0 256 -98q57 -54 87.5 -125.5t30.5 -149.5q0 -149 -98 -256q-53 -58 -125 -89t-151 -31q-151 0 -256 98q-119 110 -119 276zM31 1040q0 -148 108 -247q97 -91 228 -91q70 0 137 29t112 80q91 100 91 229q0 72 -28 136.5 t-81 111.5q-46 45 -105 67.5t-124 22.5q-149 0 -248 -108q-90 -96 -90 -230zM147 1038q0 109 80 165t159.5 70.5t119.5 14.5q-24 -7 -73.5 -32.5t-97.5 -81t-48 -138.5q0 -103 73.5 -161.5t122.5 -77.5q-37 0 -112.5 13.5t-149.5 67.5t-74 160z" />
<glyph unicode="&#xad;" d="M-2 666l139 282q43 -26 131.5 -67t169.5 -45q129 0 245.5 26t168.5 43q-70 -60 -212.5 -159t-256.5 -128q-33 -8 -82 -8q-86 0 -174 21t-129 35z" />
<glyph unicode="&#xae;" horiz-adv-x="750" d="M-6 1040q0 149 98 256q110 119 277 119q147 0 256 -98q57 -54 87.5 -125.5t30.5 -149.5q0 -149 -98 -256q-53 -58 -125 -89t-151 -31q-151 0 -256 98q-119 110 -119 276zM31 1040q0 -148 108 -247q97 -91 228 -91q70 0 137 29t112 80q91 100 91 229q0 72 -28 136.5 t-81 111.5q-46 45 -105 67.5t-124 22.5q-149 0 -248 -108q-90 -96 -90 -230zM197 1198l145 55q3 -17 7.5 -56t4.5 -81q0 -40 -6 -72q-14 -54 -53.5 -110.5t-63.5 -83.5q4 21 10.5 64.5t6.5 97.5q0 43 -4 63q-6 29 -22 66.5t-25 56.5zM221 942l25 12v-12h-25zM242 1241 q-2 0 18 2t26.5 3t12.5 1q8 0 8 -6l-28 -12q-9 0 -23 6zM307 954l21 41q2 3 7.5 7t8.5 6q0 3 45 -33zM307 1028q41 -6 112.5 -22.5t102.5 -42.5q31 -23 51 -48.5t27 -37.5l-123 -33q-1 7 -10.5 28.5t-28.5 49.5q-31 46 -71 72t-60 34zM344 1239q93 -15 142 -45t49 -92 q0 -34 -24 -56.5t-67 -48.5l-84 23q50 44 50 84q0 37 -8.5 46t-49.5 40z" />
<glyph unicode="&#x2000;" horiz-adv-x="971" />
<glyph unicode="&#x2001;" horiz-adv-x="1942" />
<glyph unicode="&#x2002;" horiz-adv-x="971" />
<glyph unicode="&#x2003;" horiz-adv-x="1942" />
<glyph unicode="&#x2004;" horiz-adv-x="647" />
<glyph unicode="&#x2005;" horiz-adv-x="485" />
<glyph unicode="&#x2006;" horiz-adv-x="323" />
<glyph unicode="&#x2007;" horiz-adv-x="323" />
<glyph unicode="&#x2008;" horiz-adv-x="242" />
<glyph unicode="&#x2009;" horiz-adv-x="388" />
<glyph unicode="&#x200a;" horiz-adv-x="107" />
<glyph unicode="&#x2010;" d="M-2 666l139 282q43 -26 131.5 -67t169.5 -45q129 0 245.5 26t168.5 43q-70 -60 -212.5 -159t-256.5 -128q-33 -8 -82 -8q-86 0 -174 21t-129 35z" />
<glyph unicode="&#x2011;" d="M-2 666l139 282q43 -26 131.5 -67t169.5 -45q129 0 245.5 26t168.5 43q-70 -60 -212.5 -159t-256.5 -128q-33 -8 -82 -8q-86 0 -174 21t-129 35z" />
<glyph unicode="&#x2012;" d="M-2 666l139 282q43 -26 131.5 -67t169.5 -45q129 0 245.5 26t168.5 43q-70 -60 -212.5 -159t-256.5 -128q-33 -8 -82 -8q-86 0 -174 21t-129 35z" />
<glyph unicode="&#x2013;" horiz-adv-x="1155" d="M0 662l184 319q58 -30 177 -76.5t225 -50.5q125 0 249.5 17t200 34.5t103.5 26.5q-41 -30 -135.5 -91t-236.5 -135t-255 -100q-41 -10 -111 -10q-84 0 -176.5 15.5t-146.5 29.5t-78 21z" />
<glyph unicode="&#x2014;" horiz-adv-x="1499" d="M-12 637l243 399q77 -38 233.5 -95.5t303.5 -61.5q246 0 448 36t287 60q-31 -21 -116 -74t-206 -120t-259 -128t-252 -84q-67 -12 -150 -12q-153 0 -306.5 30t-225.5 50z" />
<glyph unicode="&#x2018;" horiz-adv-x="602" d="M-14 1626l432 -78q-10 -41 -25.5 -122.5t-15.5 -151.5q0 -34 6 -60q25 -110 94.5 -223.5t110.5 -167.5q-81 8 -233.5 64.5t-254.5 204.5q-60 84 -85 259.5t-29 274.5z" />
<glyph unicode="&#x2019;" horiz-adv-x="602" d="M2 823q42 54 112 169t93 222q6 25 6 60q0 75 -15.5 154t-25.5 120l432 78q-4 -99 -29 -274.5t-86 -259.5q-101 -148 -253.5 -204.5t-233.5 -64.5z" />
<glyph unicode="&#x201c;" horiz-adv-x="1106" d="M-14 1626l432 -78q-10 -41 -25.5 -122.5t-15.5 -151.5q0 -34 6 -60q25 -110 94.5 -223.5t110.5 -167.5q-81 8 -233.5 64.5t-254.5 204.5q-60 84 -85 259.5t-29 274.5zM502 1626l432 -78q-10 -41 -25.5 -122.5t-15.5 -151.5q0 -34 6 -60q25 -110 94.5 -223.5t110.5 -167.5 q-81 8 -233.5 64.5t-254.5 204.5q-60 84 -85 259.5t-29 274.5z" />
<glyph unicode="&#x201d;" horiz-adv-x="958" d="M-158 848q42 54 112 169t93 222q6 24 6 59q0 74 -15.5 154t-25.5 121l432 78q-2 -44 -11 -142t-34.5 -216.5t-68.5 -176.5q-72 -105 -181.5 -165t-190 -80t-116.5 -23zM358 848q42 54 112 169t93 222q6 24 6 59q0 74 -15.5 154t-25.5 121l433 78q-2 -44 -11 -138 t-35 -216.5t-69 -180.5q-72 -105 -181.5 -165t-190 -80t-116.5 -23z" />
<glyph unicode="&#x2022;" d="M0 719q0 51 12 104q23 90 84.5 163t146 112t175.5 39q53 0 104 -13q90 -23 163 -84.5t112 -145t39 -175.5q0 -48 -13 -105q-24 -92 -85 -163.5t-144.5 -110.5t-175.5 -39q-52 0 -105 12q-92 24 -163.5 85t-110.5 145.5t-39 175.5z" />
<glyph unicode="&#x202f;" horiz-adv-x="388" />
<glyph unicode="&#x205f;" horiz-adv-x="485" />
<glyph unicode="&#xe000;" horiz-adv-x="1220" d="M0 0v1220h1220v-1220h-1220z" />
</font>
</defs>
</svg>
